<svg width="350" height="152" viewBox="0 0 350 152" fill="none" xmlns="http://www.w3.org/2000/svg">
<g clip-path="url(#clip0_1288_3184)">
<path d="M55.5509 15.8301V8.58328C55.5509 -0.631633 46.7341 0.00956951 44.8377 0.00956951H31.5854V47.6046H44.8377C46.7309 47.6046 55.5509 48.2458 55.5509 39.0309V31.784C55.5509 25.7085 52.8495 24.2293 51.9904 23.8071C52.8495 23.3849 55.5509 21.9057 55.5509 15.8301ZM39.3332 7.03106H44.6786C47.2464 7.03106 47.7714 7.91985 47.7714 9.66888V17.6268C47.7714 19.2742 46.8295 20.2963 44.7073 20.2963H39.33V7.03106H39.3332ZM47.7745 37.9453C47.7745 39.6943 47.2495 40.5831 44.6818 40.5831H39.3364V27.3178H44.7136C46.8359 27.3178 47.7777 28.3399 47.7777 29.9874V37.9453H47.7745Z" fill="white"/>
<path d="M317.072 8.58328C317.072 -0.631633 308.252 0.00956951 306.359 0.00956951H293.107V47.6046H306.359C308.252 47.6046 317.072 48.2458 317.072 39.0309V8.58328ZM309.296 37.9453C309.296 39.6943 308.771 40.5831 306.203 40.5831H300.858V7.02153H306.235C308.357 7.02153 309.299 8.04365 309.299 9.6911V37.9453H309.296Z" fill="white"/>
<path d="M190.123 0V7.02149H178.054V20.2963H189.407V27.3178H178.054V40.5926H190.123V47.6141H170.31V0H190.123Z" fill="white"/>
<path d="M261.361 0V7.02149H249.292V20.2963H260.645V27.3178H249.292V40.5926H261.361V47.6141H241.548V0H261.361Z" fill="white"/>
<path d="M217.89 6.10352e-05V7.02155H205.822V20.2963H217.174V27.3178H205.822V47.6141H198.074V6.10352e-05H217.887H217.89Z" fill="white"/>
<path d="M277.063 0V40.5926H289.132V47.6141H269.319V0H277.066H277.063Z" fill="white"/>
<path d="M154.265 0V40.5926H166.333V47.6141H146.52V0H154.268H154.265Z" fill="white"/>
<path d="M233.593 0V47.6141H225.845V0H233.593Z" fill="white"/>
<path d="M80.7414 47.6141H88.4542L81.0692 0H66.9133L59.5283 47.6141H67.241L69.096 34.3393H78.8896L80.7446 47.6141H80.7414ZM70.0792 27.3178L72.9174 7.02149H75.0651L77.9033 27.3178H70.0792Z" fill="white"/>
<path d="M141.489 0H116.508V7.02149H125.125V47.6141H132.872V7.02149H141.489V0Z" fill="white"/>
<path d="M113.995 0H89.0181V7.02149H97.6344V47.6141H105.379V7.02149H113.995V0Z" fill="white"/>
<path d="M320.944 0.596763V3.57106H320.314V0.596763H319.105V0H322.15V0.596763H320.94H320.944Z" fill="white"/>
<path d="M325.248 3.5775V1.13648L324.535 2.7014H324.122L323.409 1.14283V3.58067H322.779V0.00643921H323.498L324.335 1.76816L325.162 0.00643921H325.875V3.5775H325.245H325.248Z" fill="white"/>
<path d="M135.89 91.4323H134.744L125.078 112.782H135.89H146.705L137.038 91.4323H135.89Z" fill="#FF3C00"/>
<path d="M217.525 91.4323H193.222V100.974H217.525C218.161 100.974 218.676 100.46 218.676 99.825V92.5813C218.676 91.9465 218.161 91.4323 217.525 91.4323Z" fill="#FF3C00"/>
<path d="M217.525 114.144H193.222V123.685H217.525C218.161 123.685 218.676 123.171 218.676 122.536V115.293C218.676 114.658 218.161 114.144 217.525 114.144Z" fill="#FF3C00"/>
<path d="M0 63.1206V152H350V63.1206H0ZM96.495 136.129H46.2764V78.992H64.2123V120.651H96.495V136.129ZM170.272 136.129H158.251L153.093 125.686H118.685L113.527 136.129H101.506V121.959L123.273 78.992H148.505L170.272 121.959V136.129ZM236.613 100.31C236.613 102.815 236.011 104.732 234.812 106.065C234.214 106.729 233.53 107.227 232.756 107.56C233.475 107.894 234.134 108.37 234.732 109.005C235.986 110.338 236.613 111.985 236.613 113.944V127.152C236.613 129.983 235.836 132.186 234.28 133.764C232.725 135.342 230.504 136.132 227.611 136.132H175.286V78.9951H227.611C230.5 78.9951 232.725 79.7697 234.28 81.3219C235.836 82.8741 236.613 85.0897 236.613 87.9751V100.314V100.31ZM303.724 96.8218H285.788V92.5842C285.788 91.9493 285.272 91.4351 284.636 91.4351H261.488C260.852 91.4351 260.336 91.9493 260.336 92.5842V97.2599C260.336 97.5868 260.429 97.882 260.61 98.1423C260.861 98.501 261.272 98.7105 261.705 98.774L296.545 104.726C300.927 105.237 303.727 110.252 303.727 114.512V127.301C303.727 130.085 302.963 132.25 301.433 133.802C299.905 135.354 297.72 136.129 294.878 136.129H251.249C248.459 136.129 246.289 135.354 244.733 133.802C243.177 132.25 242.4 130.085 242.4 127.301V117.655H260.336V122.54C260.336 123.175 260.852 123.689 261.488 123.689H284.636C285.272 123.689 285.788 123.175 285.788 122.54V118.128C285.788 117.801 285.695 117.509 285.514 117.245C285.263 116.886 284.852 116.674 284.416 116.61L250.454 110.693C243.664 109.89 242.394 103.405 242.394 100.872V87.8196C242.394 84.985 243.17 82.8043 244.726 81.2806C246.282 79.757 248.452 78.992 251.243 78.992H294.872C297.713 78.992 299.899 79.7538 301.426 81.2806C302.954 82.8043 303.72 84.985 303.72 87.8196V96.8218H303.724Z" fill="#FF3C00"/>
</g>
<defs>
<clipPath id="clip0_1288_3184">
<rect width="350" height="152" fill="white"/>
</clipPath>
</defs>
</svg>
