<?xml version="1.0" encoding="UTF-8"?>
<svg width="204px" height="89px" viewBox="0 0 204 89" version="1.1" xmlns="http://www.w3.org/2000/svg" xmlns:xlink="http://www.w3.org/1999/xlink">
    <!-- Generator: Sketch 61 (89581) - https://sketch.com -->
    <title>ESRB-BattlefieldV</title>
    <desc>Created with Sketch.</desc>
    <g id="NHL" stroke="none" stroke-width="1" fill="none" fill-rule="evenodd">
        <g id="ESRB-BattlefieldV">
            <polygon id="Path" fill="#FFFFFF" fill-rule="nonzero" points="186.37 7.10542736e-15 185.3 7.10542736e-15 1.64 7.10542736e-15 0.57 7.10542736e-15 0.57 0.95 0.57 87.78 0.57 88.73 1.64 88.73 186.48 88.73 186.48 7.10542736e-15"></polygon>
            <polygon id="Path" fill="#FFFFFF" fill-rule="nonzero" points="203.879296 0.07 202.70518 0.07 1.17411651 0.07 0 0.07 0 1.02 0 87.85 0 88.8 1.17411651 88.8 204 88.8 204 0.07"></polygon>
            <polygon id="Path" fill="#231F20" fill-rule="nonzero" points="202.64 87.78 1.64 87.78 1.64 1 202.64 1"></polygon>
            <rect id="Rectangle" fill="#FFFFFF" fill-rule="nonzero" x="4.32" y="4.04" width="51.24" height="14.4"></rect>
            <rect id="Rectangle" fill="#FFFFFF" fill-rule="nonzero" x="4.29" y="21.58" width="51.27" height="52.93"></rect>
            <rect id="Rectangle" fill="#FFFFFF" fill-rule="nonzero" x="58.68" y="4.02" width="140" height="80.65"></rect>
            <text id="Blood-Violence-Stron" font-family="ArialMT, Arial" font-size="16" font-weight="normal" line-spacing="18" letter-spacing="0.025906" fill="#000000">
                <tspan x="67" y="31">Blood</tspan>
                <tspan x="67" y="49">Violence</tspan>
                <tspan x="67" y="67">Strong Language</tspan>
            </text>
            <g id="Group-3" transform="translate(4.000000, 78.000000)" fill="#FFFFFF" fill-rule="nonzero">
                <polygon id="Path" points="0 7 0 0 10.7477773 0 10.7477773 1.63955119 4.31867103 1.63955119 4.31867103 2.64095372 9.7594759 2.64095372 9.7594759 4.27068724 4.31867103 4.27068724 4.31867103 5.36535764 11 5.36535764 11 7"></polygon>
                <path d="M19.9138817,2.09297659 C19.8207961,1.8474914 19.603819,1.66933825 19.3436161,1.62474916 C19.0102372,1.5362541 18.6658938,1.4952648 18.3209083,1.50301003 C17.4490146,1.50301003 17.0625536,1.64347826 17.0625536,1.8916388 C17.0625536,2.87959866 24,2.25685619 24,4.70100334 C24,6.24615385 21.6435304,7 18.344473,7 C15.1585261,7 13.0848329,5.97458194 13,4.76655518 L16.7703513,4.76655518 C16.8937296,5.03385046 17.1363193,5.2280466 17.4254499,5.2909699 C17.7893479,5.40696692 18.1696975,5.46388531 18.5518423,5.45953177 C19.5415596,5.45953177 20.1966581,5.28628763 20.1966581,4.99130435 C20.1966581,3.97993311 13.2544987,4.6729097 13.2544987,2.13043478 C13.2544987,0.725752508 15.4648672,0 18.4858612,0 C21.832048,0 23.3590403,0.936454849 23.6700943,2.10702341 L19.9138817,2.09297659 Z" id="Path"></path>
                <path d="M31.1347023,3.03219034 L32.7560575,3.03219034 C34.0373717,3.03219034 34.7273101,2.84604619 34.7273101,2.3659902 C34.7273101,1.88593422 34.0275154,1.63610917 33.0665298,1.63610917 L31.1347023,1.63610917 L31.1347023,3.03219034 Z M31.1347023,4.55073478 L31.1347023,7 L27,7 L27,0 L32.9581109,0 C37.1568789,0 38.5416838,0.641707488 38.5416838,1.99860042 C38.5416838,2.80685794 37.8960986,3.46815955 36.4275154,3.70818754 C37.7531828,3.97760672 38.5613963,4.13925822 38.5613963,5.55003499 C38.5613963,6.45626312 38.5071869,6.7746676 39,6.7746676 L39,6.98530441 L34.8061602,6.98530441 C34.6456476,6.59949377 34.576516,6.18216778 34.6041068,5.76557033 C34.6041068,4.84464661 34.3232033,4.55073478 32.3963039,4.55073478 L31.1347023,4.55073478 Z" id="Shape"></path>
                <path d="M44.9225532,1.63610917 L44.9225532,2.80685794 L46.5608511,2.80685794 C47.3425532,2.80685794 47.913617,2.5913226 47.913617,2.19454164 C47.913617,1.64590623 47.1365957,1.63610917 46.312766,1.63610917 L44.9225532,1.63610917 Z M44.9225532,4.08537439 L44.9225532,5.36878936 L46.6404255,5.36878936 C47.6093617,5.36878936 48.3395745,5.25122463 48.3395745,4.73198041 C48.3395745,4.1196641 47.4314894,4.08537439 46.1723404,4.08537439 L44.9225532,4.08537439 Z M41,7 L41,0 L46.7293617,0 C49.4255319,0 51.5740426,0.382085374 51.5740426,1.76347096 C51.5740426,2.48355493 50.773617,3.00769769 50.0106383,3.27711686 C51.307234,3.47795661 52,4.12946116 52,4.87893632 C52,6.436669 49.9591489,6.98530441 46.8510638,6.98530441 L41,7 Z" id="Shape"></path>
            </g>
            <polygon id="Path" fill="#231F20" fill-rule="nonzero" points="6 34.1576355 21.8591403 29.9261084 30.9023304 51.0246305 30.9769032 51 28.2475401 28.226601 44.1066805 24 54 60.8472906 44.3353703 63.4137931 37.2609011 37.0738916 37.1813568 37.0985222 40.1791818 64.5172414 29.7191093 67.3152709 18.5729674 42.0689655 18.4934231 42.08867 25.5529777 68.4285714 15.8933195 71"></polygon>
            <polygon id="Path" fill="#231F20" fill-rule="nonzero" points="6 16 6 8 8.3944687 8 9.50509461 13.4512417 9.50509461 13.4512417 10.6870451 8 13 8 13 16 11.573508 16 11.573508 9.8316172 11.573508 9.8316172 10.1877729 16 8.77147016 16 7.46724891 9.8316172 7.46724891 9.8316172 7.46724891 16"></polygon>
            <path d="M13,16 L15.013913,8 L17.0226087,8 L19,16 L17.3878261,16 L16.986087,14.2259819 L14.8991304,14.2259819 L14.5026087,16 L13,16 Z M15.9321739,9.54199396 L15.9321739,9.54199396 L15.2382609,12.9981873 L16.6886957,12.9981873 L15.9321739,9.54199396 Z" id="Shape" fill="#231F20" fill-rule="nonzero"></path>
            <polygon id="Path" fill="#231F20" fill-rule="nonzero" points="24 8 24 9.33737129 22.2731137 9.33737129 22.2731137 16 20.7215728 16 20.7215728 9.33737129 19 9.33737129 19 8"></polygon>
            <path d="M29,8 L29,13.5742594 C29.0012859,13.8713881 28.9569974,14.1672488 28.8683689,14.4534051 C28.7872045,14.7336745 28.6459143,14.9968448 28.4525044,15.2280038 C28.2473469,15.4644555 27.984278,15.6547679 27.6839448,15.7840041 C27.3132218,15.9326109 26.9102308,16.0040711 26.5047848,15.9930982 C25.7987727,16.0448571 25.1050918,15.8034666 24.6202344,15.337303 C24.1847481,14.8365612 23.9658443,14.2099387 24.0043339,13.5742594 L24.0043339,8 L25.5361891,8 L25.5361891,13.4697123 C25.5020323,13.8313678 25.5940659,14.1936089 25.7993944,14.5056787 C25.9560282,14.705941 26.2122029,14.82335 26.4837284,14.8193198 C26.7779283,14.8323017 27.0565127,14.699267 27.2101752,14.4724137 C27.3921045,14.1645556 27.4793544,13.818321 27.4628523,13.4697123 L27.4628523,8 L29,8 Z" id="Path" fill="#231F20" fill-rule="nonzero"></path>
            <path d="M31.3182844,15.9806667 L30,15.9806667 L30,8.00086697 L32.4334086,8.00086697 C32.853709,7.98513314 33.2559534,8.18430154 33.51693,8.53736471 C33.8083622,8.99389971 33.9482606,9.54192987 33.9142212,10.0936915 C33.9276942,10.5430434 33.8344952,10.988713 33.6433409,11.3890194 C33.4597751,11.7535878 33.1239216,12.0016825 32.7404063,12.0560166 L32.7404063,12.0801831 L33.03386,12.1430162 C33.1735292,12.1774987 33.3035237,12.2470833 33.4130926,12.3460154 C33.5544836,12.4698867 33.6672667,12.6270184 33.7426637,12.8051801 C33.8479713,13.0723203 33.8958034,13.3613981 33.8826185,13.6510099 C33.8826185,13.776676 33.8826185,13.9506753 33.8826185,14.1826743 C33.8826185,14.4146733 33.8826185,14.6660056 33.8826185,14.888338 C33.8826185,15.1106704 33.9051919,15.3716693 33.9277652,15.5650018 C33.938917,15.7121237 33.963104,15.8577779 34,16 L32.744921,16 C32.6556125,15.7548884 32.6082064,15.4945798 32.6049661,15.2315032 C32.6049661,14.965671 32.6049661,14.7046721 32.6049661,14.4485065 C32.6049661,14.1923409 32.6049661,13.9651752 32.6049661,13.7718427 C32.6083548,13.5813306 32.5808595,13.3916323 32.523702,13.2111784 C32.4663428,13.0579144 32.3692166,12.9254223 32.2437923,12.8293467 C32.0694732,12.723533 31.8705493,12.6732266 31.6704289,12.6843473 L31.3273138,12.6843473 L31.3182844,15.9806667 Z M31.3182844,11.4373525 L31.9051919,11.4373525 C32.0215731,11.4415838 32.1359521,11.404168 32.2302483,11.3310196 C32.31623,11.2526044 32.3855072,11.1553637 32.4334086,11.0458542 C32.4924057,10.9269835 32.530654,10.7975884 32.5462754,10.6640224 C32.5676251,10.5315307 32.578199,10.3973059 32.5778781,10.2628575 C32.6026792,9.97829974 32.5392114,9.69292137 32.3972912,9.45086087 C32.2784077,9.2917473 32.0952644,9.20360603 31.9051919,9.21402853 L31.3182844,9.21402853 L31.3182844,11.4373525 Z" id="Shape" fill="#231F20" fill-rule="nonzero"></path>
            <polygon id="Path" fill="#231F20" fill-rule="nonzero" points="35 16 35 8 38.9176319 8 38.9176319 9.21623259 36.5032175 9.21623259 36.5032175 11.1932162 38.7323037 11.1932162 38.7323037 12.4239855 36.5032175 12.4239855 36.5032175 14.7643852 39 14.7643852 39 16"></polygon>
            <path d="M42,9.24487334 C42.1899381,9.07909597 42.3714098,8.89860696 42.5433526,8.70446321 C42.7212449,8.49703371 42.8755444,8.25999832 43.0019268,8 L44,8 L44,16 L42.8747592,16 L42.8747592,9.84318456 C42.7452117,10.0177446 42.6047537,10.1790923 42.4547206,10.3256936 C42.3044316,10.4704463 42.1541426,10.6103739 42,10.7406514 L42,9.24487334 Z" id="Path" fill="#231F20" fill-rule="nonzero"></path>
            <polygon id="Path" fill="#231F20" fill-rule="nonzero" points="49 9.53253012 47.6404959 16 46.4008264 16 47.9132231 9.25301205 46 9.25301205 46 8 49 8"></polygon>
            <polygon id="Path" fill="#231F20" fill-rule="nonzero" points="51.5126437 9 52.5011494 9 52.5011494 11.3439931 54 11.3439931 54 12.6611927 52.5011494 12.6611927 52.5011494 15 51.5126437 15 51.5126437 12.6611927 50 12.6611927 50 11.3439931 51.5126437 11.3439931"></polygon>
        </g>
    </g>
</svg>